<svg width="60" height="61" viewBox="0 0 60 61" fill="none" xmlns="http://www.w3.org/2000/svg">
<path d="M11.8333 20.3333V36.6661C11.8333 36.6661 18.3798 36.4224 26 40.1667C33.6203 36.4224 40.1667 36.6661 40.1667 36.6661V20.3333C40.1667 20.3333 32.4402 20.3333 26 23.8339C19.5598 20.3333 11.8333 20.3333 11.8333 20.3333Z" fill="white"/>
<path d="M26 20.3333C28.3472 20.3333 30.25 18.4305 30.25 16.0833C30.25 13.7361 28.3472 11.8333 26 11.8333C23.6528 11.8333 21.75 13.7361 21.75 16.0833C21.75 18.4305 23.6528 20.3333 26 20.3333Z" fill="white"/>
<path d="M25.8125 1C11.5788 1 0 12.5787 0 26.8125C0 41.0462 11.5788 52.625 25.8125 52.625C30.1637 52.625 34.4412 51.5925 38.055 49.6012C38.3445 49.9496 38.6654 50.2705 39.0137 50.56L46.3887 57.935C47.0697 58.7013 47.9002 59.3203 48.829 59.754C49.7579 60.1877 50.7656 60.427 51.7903 60.4571C52.815 60.4873 53.835 60.3077 54.7878 59.9294C55.7406 59.5511 56.606 58.982 57.3309 58.2571C58.0557 57.5322 58.6248 56.6668 59.0031 55.7141C59.3815 54.7613 59.561 53.7412 59.5309 52.7165C59.5007 51.6919 59.2614 50.6841 58.8277 49.7553C58.394 48.8264 57.775 47.996 57.0088 47.315L49.6338 39.94C49.2745 39.5806 48.8791 39.2593 48.4538 38.9812C50.445 35.3675 51.6988 31.1637 51.6988 26.7387C51.6988 12.505 40.12 0.92625 25.8862 0.92625L25.8125 1ZM25.8125 8.375C36.0637 8.375 44.25 16.5612 44.25 26.8125C44.25 31.68 42.48 36.1787 39.3825 39.4975L39.1612 39.7187C38.8129 40.0082 38.492 40.3292 38.2025 40.6775C34.9575 43.6275 30.5325 45.3238 25.7388 45.3238C15.4875 45.3238 7.30125 37.1375 7.30125 26.8862C7.30125 16.635 15.4875 8.44875 25.7388 8.44875L25.8125 8.375Z" fill="white"/>
</svg>
