<svg width="60" height="61" viewBox="0 0 60 61" fill="none" xmlns="http://www.w3.org/2000/svg">
<path d="M31.1588 13.0425C30.2743 13.0331 29.578 13.3043 29.3145 13.878C28.0243 16.6876 26.5536 18.8136 24.8345 20.5208C25.0085 20.5791 25.1778 20.6507 25.3408 20.7351C26.0764 21.115 26.772 21.7421 27.3409 22.482C27.9098 23.2219 28.3519 24.0744 28.5179 24.9459C28.5601 25.1672 28.5836 25.3925 28.5834 25.6167C30.7907 24.2369 33.4012 23.2818 36.5627 22.7103C37.4072 22.5576 37.9024 21.0886 37.7751 19.388L35.7838 19.3314L37.5148 17.926C37.2798 17.1043 36.891 16.2973 36.3165 15.6196C35.437 14.5822 34.2531 13.8424 33.1039 13.4284L31.6333 14.3116L31.7926 13.0938C31.5731 13.0627 31.3616 13.0446 31.1589 13.0425L31.1588 13.0425ZM23.9867 21.4342C23.9265 21.4371 23.87 21.447 23.8168 21.4608C23.1385 22.0416 22.4229 22.5708 21.668 23.0626C21.7157 23.0813 21.7626 23.1004 21.8096 23.121C22.6095 23.4718 23.3637 24.0922 23.9885 24.8557C24.745 25.7802 25.3264 26.948 25.4399 28.1267C26.0252 27.5395 26.6429 26.9971 27.3002 26.4999C27.5322 26.1287 27.5794 25.6805 27.4772 25.1441C27.3535 24.495 26.9877 23.7604 26.5001 23.1263C26.0125 22.4922 25.4025 21.9582 24.854 21.6748C24.5112 21.4978 24.2222 21.4228 23.9867 21.4341L23.9867 21.4342ZM20.4803 23.8857C20.4018 23.8887 20.3279 23.901 20.2555 23.9175C18.1598 25.0935 15.7759 26.069 13.0445 27.0894C13.077 27.0918 13.1091 27.0947 13.1419 27.0982C13.7438 27.1637 14.3357 27.3819 14.9066 27.7142L17.0412 26.7832L16.1455 28.6365C16.4851 28.9442 16.814 29.2866 17.1279 29.656C18.3037 31.04 19.2782 32.8202 19.7953 34.6456C19.7954 34.6462 19.7951 34.6468 19.7953 34.6474C19.9641 35.2426 20.0847 35.8321 20.1528 36.4033C21.3417 33.6597 22.6665 31.3475 24.2504 29.4365C24.6639 28.2198 24.1266 26.6946 23.1707 25.5266C22.636 24.8731 21.9826 24.3531 21.3848 24.091C21.0486 23.9435 20.7465 23.8754 20.4803 23.8857ZM28.5021 26.9921C28.088 27.2781 27.6829 27.5874 27.2879 27.916C29.5059 28.4405 30.7403 29.9393 31.8562 31.4366C32.4489 32.2318 33.0229 33.0287 33.7324 33.7412C35.1026 34.2593 36.1776 34.1025 37.3521 32.8951C32.1318 31.3216 31.9084 27.6496 28.502 26.992L28.5021 26.9921ZM12.7524 28.1373C12.1365 28.15 11.7181 28.4632 11.4302 29.0772C11.1011 29.7788 11.0272 30.9163 11.455 32.3092C11.7807 33.3701 12.3907 34.4456 13.0834 35.2333C13.7761 36.021 14.5504 36.4837 15.087 36.5024H15.0888C15.2994 36.5098 15.46 36.4638 15.5879 36.3466L15.5773 36.336L15.6959 36.2174C15.7408 36.1512 15.782 36.0731 15.8198 35.9802C15.9789 35.5894 16.0055 34.9294 15.7153 34.1111C15.3254 33.0113 14.6324 32.3024 13.8249 32.1411L12.524 31.8826L13.6462 31.1746L15.8252 29.8047C14.8821 28.8519 13.8683 28.241 13.0285 28.1497C12.9322 28.1392 12.8403 28.1355 12.7523 28.1373L12.7524 28.1373ZM26.1337 28.4435L24.7443 29.8807C30.4334 30.8933 27.8851 37.8673 33.7678 39.8601L32.3642 36.6157C34.2201 37.5305 36.1812 37.8971 37.8991 37.2971C30.209 34.9212 32.4435 30.1047 26.1337 28.4435ZM16.5349 30.6083L15.064 31.5339C15.8105 32.0154 16.3786 32.812 16.7137 33.7571C16.8592 34.1674 16.9478 34.5617 16.9827 34.9341L18.3104 33.6102C17.8527 32.5232 17.2322 31.4824 16.535 30.6082L16.5349 30.6083ZM18.7085 34.7076L16.326 37.0865L16.3172 37.0776C16.0762 37.3009 15.7816 37.4608 15.457 37.5273C16.775 38.3697 17.9857 38.623 18.6749 38.0688C18.9162 37.8748 19.0738 37.5953 19.1547 37.2529C19.1314 36.5345 19.0073 35.7454 18.7776 34.9359C18.756 34.8597 18.7319 34.7838 18.7085 34.7076Z" fill="white"/>
<path d="M25.8125 0.999997C11.5788 0.999997 0 12.5787 0 26.8125C0 41.0462 11.5788 52.625 25.8125 52.625C30.1637 52.625 34.4412 51.5925 38.055 49.6012C38.3445 49.9496 38.6654 50.2705 39.0137 50.56L46.3887 57.935C47.0697 58.7013 47.9002 59.3203 48.829 59.754C49.7579 60.1877 50.7656 60.427 51.7903 60.4571C52.815 60.4873 53.835 60.3077 54.7878 59.9294C55.7406 59.5511 56.606 58.982 57.3309 58.2571C58.0557 57.5322 58.6248 56.6668 59.0031 55.7141C59.3815 54.7613 59.561 53.7412 59.5309 52.7165C59.5007 51.6919 59.2614 50.6841 58.8277 49.7553C58.394 48.8264 57.775 47.996 57.0088 47.315L49.6338 39.94C49.2745 39.5806 48.8791 39.2593 48.4538 38.9812C50.445 35.3675 51.6988 31.1637 51.6988 26.7387C51.6988 12.505 40.12 0.926247 25.8862 0.926247L25.8125 0.999997ZM25.8125 8.375C36.0637 8.375 44.25 16.5612 44.25 26.8125C44.25 31.68 42.48 36.1787 39.3825 39.4975L39.1612 39.7187C38.8129 40.0082 38.492 40.3292 38.2025 40.6775C34.9575 43.6275 30.5325 45.3237 25.7388 45.3237C15.4875 45.3237 7.30125 37.1375 7.30125 26.8862C7.30125 16.635 15.4875 8.44875 25.7388 8.44875L25.8125 8.375Z" fill="white"/>
</svg>
