<svg width="60" height="61" viewBox="0 0 60 61" fill="none" xmlns="http://www.w3.org/2000/svg">
<path d="M25.4688 11.348L13.8032 18.8055L25.4688 18.5531V11.348ZM26.5312 11.348V18.5531L38.1988 18.8055L26.5312 11.348ZM29.9445 15.2594C30.3496 15.4918 30.4891 15.7375 30.9473 15.5383C31.6578 15.5914 32.4281 15.9234 32.7801 16.5809C33.0922 16.8797 32.8797 17.4176 32.4348 17.4176C31.7906 17.4242 31.1266 17.0125 31.4652 16.8664C31.7773 16.7336 32.4414 16.9262 32.1293 16.5012C31.8902 16.2023 31.3988 15.9832 31.0469 16.1094C30.9406 16.5609 30.4227 16.375 30.25 16.0629C30.0973 15.6777 29.6457 15.5184 29.2539 15.5383C28.8488 15.7176 29.3602 16.1227 29.6059 16.1957C30.1305 16.3418 29.6191 16.6937 29.3336 16.5344C29.0547 16.375 28.3375 15.8969 28.4371 15.3191C28.8223 14.8284 29.4863 15.0123 29.9445 15.2594ZM22.7395 15.027C23.1047 15.0602 23.5563 15.2262 23.4168 15.6844C23.1313 16.1492 22.766 16.5543 22.2148 16.6672C21.7832 16.893 21.2254 16.9594 20.7805 16.7934C20.5348 16.6406 19.884 16.1758 19.791 16.5676C19.6516 17.5504 19.8375 17.4375 19.0539 17.7496V16.1293C19.7113 15.8703 20.4551 15.8305 21.066 16.2156C21.5973 16.4945 22.3543 16.3152 22.673 15.8371C22.766 15.4055 22.1352 15.5316 21.8629 15.6113C21.6836 15.0668 22.3875 15.1133 22.7395 15.027ZM25.0637 19.6223L12.6782 19.8945L17.407 32.7043L25.0637 19.6223ZM26.9363 19.6223L34.593 32.7043L39.3211 19.8945L26.9363 19.6223ZM26 20.1203L18.2238 33.4148H33.7762L26 20.1203ZM34.852 21.5215C35.775 22.0727 36.2797 23.2613 36.3195 24.377C36.2332 25.2801 36.273 25.6918 35.3102 25.798C34.3473 25.9043 33.723 24.523 33.3379 23.6332C33.1121 22.9758 32.9527 22.0395 33.4508 21.5547C33.8559 21.2359 34.4469 21.2824 34.852 21.5215ZM19.9969 22.5906C20.1363 22.8562 19.9637 23.3477 19.6781 23.3941C19.3527 23.4406 19.4258 22.7766 19.0539 22.6238C18.5957 22.4711 18.1508 22.9957 18.0578 23.3941C18.7484 23.1285 19.4059 23.8656 19.4059 24.523C19.3793 25.3 18.8813 26.1699 18.0977 26.3891H17.7258C16.8824 26.3426 16.5105 25.3398 16.7828 24.6227C17.075 23.5734 17.5 22.3715 18.5891 21.9266C19.1535 21.6676 19.8508 22.1391 19.9969 22.5906ZM34.2012 22.0328C33.7297 22.0262 33.909 22.6969 33.982 22.9957C34.2145 23.7594 34.4668 24.7621 35.2371 24.9879C35.6887 24.9082 35.5293 24.1379 35.4828 23.8922C35.1707 23.1684 35.0113 22.3449 34.2012 22.0328ZM12.4531 22.3516V33.8531L16.5637 33.4746L12.4531 22.3516ZM39.5469 22.3516L35.4363 33.4746L39.5469 33.8531V22.3516ZM31.7176 22.398L33.6102 26.6148L32.9461 26.907L31.618 24.0316C31.2129 24.2309 30.7547 24.6227 30.6484 23.9387C30.5621 23.6797 31.2129 23.6 31.1863 23.1484C31.1664 22.6902 31.3324 22.3383 31.7176 22.398ZM17.6395 24.2176C17.4801 24.5562 17.3672 24.9016 17.4602 25.2734C17.573 25.8578 18.3566 25.6984 18.4961 25.2203C18.6754 24.8883 18.7551 24.4434 18.4629 24.1777C18.1906 23.952 17.8719 23.9918 17.6395 24.2176ZM39.4473 26.9801C39.4406 28.2152 39.5203 29.5832 38.8031 30.6523C38.7434 30.732 38.657 30.7785 38.5574 30.8184C38.1723 30.5461 38.3582 30.068 38.6371 29.7891C38.7035 30.2738 39.0023 29.5965 39.0754 29.4172C39.1617 29.2047 39.3145 28.2418 39.009 28.7398C39.0555 29.0055 38.5574 29.6098 38.3914 29.2777C38.0594 28.3215 38.3914 27.2523 38.8563 26.3891C39.2348 25.9773 39.5137 26.6812 39.4473 26.9801ZM12.9797 26.3027C13.0189 26.3094 13.0687 26.3691 13.1444 26.5418V30.5992C12.6596 30.1344 12.8476 29.4039 12.8489 28.8461C12.8489 28.2883 12.9585 27.7637 12.7639 27.3055C12.4571 27.1926 12.3794 26.1766 12.5534 26.4621C12.8462 26.7809 12.8629 26.2828 12.9797 26.3027ZM24.8512 26.8074C25.3891 27.1062 25.7676 27.7637 25.5684 28.3746C25.4289 29.384 23.7754 29.7758 23.5496 30.3469C23.4699 30.5461 25.2363 30.4531 25.5551 30.4531C25.5883 30.7187 25.6547 31.1637 25.3027 31.2301C24.3398 31.1504 23.3172 31.1902 22.3078 31.1902C22.3344 30.4465 22.7992 29.7758 23.4367 29.4105C23.8949 29.0852 24.4594 28.793 24.6387 28.2219C24.7582 27.923 24.5988 27.6043 24.3332 27.4582C24.0543 27.2656 23.6027 27.3055 23.4566 27.6375C23.3238 27.8898 23.1645 28.2418 22.8789 28.275C22.6863 28.3016 22.2813 28.3082 22.4008 27.9496C22.4938 27.5777 22.6266 27.1859 22.9453 26.9402C23.5297 26.5219 24.2668 26.4953 24.8512 26.8074ZM28.3906 26.7145C28.8422 26.8605 29.1875 27.2391 29.3402 27.684C29.7453 28.6602 29.7055 29.882 29.048 30.732C28.7492 31.0508 28.3707 31.3363 27.9191 31.3363C27.0891 31.3297 26.4316 30.5992 26.2723 29.8223C26.0664 28.9324 26.1527 27.9164 26.7305 27.1793C27.182 26.6746 27.793 26.4953 28.3906 26.7145ZM38.7566 27.2523C38.6504 27.6441 38.5375 28.1422 38.7102 28.534C39.0488 28.4012 39.0687 27.8965 39.1484 27.5711C39.2082 27.166 38.916 26.7344 38.7566 27.2523ZM27.0559 28.6535C27.0957 29.3508 27.1688 30.1676 27.7 30.5262C28.0254 30.6457 28.3441 30.3801 28.4371 30.0812C28.5633 29.6629 28.5898 29.2246 28.5965 28.793C28.5832 28.3215 28.4969 27.7969 28.1516 27.4582C27.3414 27.166 27.1355 28.182 27.0559 28.6535ZM37.8203 27.7172V31.7812L37.5281 32.2262V29.4172C37.2227 29.9152 36.9238 30.0215 37.123 29.3574C37.5281 28.8859 37.4418 28.202 37.8203 27.7172ZM14.5682 28.5273C14.6213 28.7664 14.9082 29.7094 14.7036 29.5102C14.5728 29.4238 14.4632 29.1848 14.4772 29.1051C14.3743 28.9059 14.2806 28.7 14.1976 28.4941C14.0017 28.7598 13.9346 29.0453 13.9891 29.384C14.0024 29.2777 14.0675 29.2313 14.2142 29.3375C14.7348 30.1742 15.0224 31.2699 14.6983 32.2262L14.5509 32.2992C13.8629 31.9141 13.7939 31.0109 13.6591 30.307C13.5561 29.4902 13.6066 28.6668 13.8118 27.8699C14.1571 27.6176 14.4201 28.2285 14.5682 28.5273ZM14.1 29.8688C13.8304 30.1809 13.9499 30.7187 14.0748 31.0906C14.1485 31.4559 14.5343 31.768 14.4772 31.1969C14.523 30.4598 14.3225 30.3535 14.1 29.8688ZM18.5094 34.4773L26 42.652L33.4906 34.4773H18.5094ZM17.0883 34.4973L13.513 34.8227L17.7789 37.552C17.6062 37.3727 17.4535 37.1734 17.3074 36.9676C16.9621 36.5094 16.6102 36.0645 16.0523 35.8652C15.4713 35.4336 15.7734 35.5133 16.2449 35.6926C16.1785 35.573 16.1984 35.5199 16.2516 35.5199C16.3977 35.5066 16.8094 35.7988 16.9023 35.9383L18.5426 38.0367L22.8656 40.8059L17.0883 34.4973ZM34.9117 34.4973L32.0961 37.5719C32.5211 37.366 32.8465 37.0074 33.225 36.7484C33.3844 36.6555 33.4707 36.6223 33.5105 36.6223C33.65 36.6223 33.152 37.0938 32.9992 37.3063C32.375 37.957 31.9367 38.8336 31.1 39.2387L32.3551 37.6117C32.2023 37.698 31.9566 37.8242 31.8105 37.884L29.1344 40.8059L34.0816 37.6449C34.4402 37.2 34.2078 37.273 33.7031 37.5852L32.9461 37.9836C33.7031 37.0738 34.9914 36.1043 35.6023 35.6195C36.2133 35.1348 36.6582 34.9687 36.1469 35.5199L35.3102 36.5824C35.9742 36.0777 35.3699 36.8414 35.0113 36.9477C34.9648 37.0141 34.9184 37.0805 34.8652 37.1402L38.4844 34.8227L34.9117 34.4973ZM24.6719 35.6195V38.5016H23.782V36.5094C23.45 36.4164 23.0914 36.6223 22.766 36.4895C22.5137 36.2969 22.8324 36.0379 23.0648 36.0977C23.284 36.091 23.5695 36.1109 23.6824 35.8852C23.9746 35.5863 24.3199 35.593 24.6719 35.6195ZM26.5977 35.6527C27.4012 35.7324 28.2047 35.6926 29.0281 35.6926C29.1277 35.8918 29.0812 36.2105 28.809 36.2172C28.2977 36.2371 27.4145 36.1109 27.0891 36.257C26.5445 36.9543 27.4676 36.5094 27.8461 36.6023C28.3109 36.6754 28.8422 36.7949 29.1145 37.2133C29.2539 37.4191 29.2938 37.698 29.1609 37.9238C28.7758 38.3754 28.032 38.6875 27.4809 38.6477C26.9961 38.6078 26.4449 38.5746 26.1129 38.1762C25.6879 37.4723 26.8102 37.7312 26.923 37.9637C27.3215 38.3156 28.2711 38.0898 28.2977 37.6516C28.3375 37.3727 28.1582 37.2332 27.8395 37.1336C27.5207 37.034 27.0027 37.2 26.6906 37.2531C26.3785 37.3062 26.0531 37.2863 26.093 36.9609C26.1461 36.682 26.2723 36.423 26.2723 36.1309C26.2789 35.9316 26.3852 35.666 26.5977 35.6527ZM35.4629 35.9848C35.4496 35.9715 34.998 36.3699 34.8055 36.5227L33.7562 37.3926C34.4602 36.9609 35.0379 36.5957 35.4629 35.9848ZM19.0605 36.9277C19.2199 36.9277 19.5586 37.2332 19.6848 37.3926L21.418 39.4578C20.9066 39.3184 20.5348 38.9863 20.2492 38.548C19.8176 38.0633 19.4988 37.4457 18.8414 37.2465C18.2437 36.9145 18.4961 36.8215 18.9809 37.1004C18.9609 36.9742 18.9941 36.9277 19.0605 36.9277Z" fill="white"/>
<path d="M25.8125 0.999997C11.5788 0.999997 0 12.5787 0 26.8125C0 41.0462 11.5788 52.625 25.8125 52.625C30.1637 52.625 34.4412 51.5925 38.055 49.6012C38.3445 49.9496 38.6654 50.2705 39.0137 50.56L46.3887 57.935C47.0697 58.7013 47.9002 59.3203 48.829 59.754C49.7579 60.1877 50.7656 60.427 51.7903 60.4571C52.815 60.4873 53.835 60.3077 54.7878 59.9294C55.7406 59.5511 56.606 58.982 57.3309 58.2571C58.0557 57.5322 58.6248 56.6668 59.0031 55.7141C59.3815 54.7613 59.561 53.7412 59.5309 52.7165C59.5007 51.6919 59.2614 50.6841 58.8277 49.7553C58.394 48.8264 57.775 47.996 57.0088 47.315L49.6338 39.94C49.2745 39.5806 48.8791 39.2593 48.4538 38.9812C50.445 35.3675 51.6988 31.1637 51.6988 26.7387C51.6988 12.505 40.12 0.926247 25.8862 0.926247L25.8125 0.999997ZM25.8125 8.375C36.0637 8.375 44.25 16.5612 44.25 26.8125C44.25 31.68 42.48 36.1787 39.3825 39.4975L39.1612 39.7187C38.8129 40.0082 38.492 40.3292 38.2025 40.6775C34.9575 43.6275 30.5325 45.3237 25.7388 45.3237C15.4875 45.3237 7.30125 37.1375 7.30125 26.8862C7.30125 16.635 15.4875 8.44875 25.7388 8.44875L25.8125 8.375Z" fill="white"/>
</svg>
