<svg width="24" height="24" viewBox="0 0 24 24" fill="none" xmlns="http://www.w3.org/2000/svg">
<circle cx="12" cy="12" r="12" fill="#7B0AAF"/>
<path d="M4.71428 19.6607V15.9799L16.1464 4.56943C16.3196 4.41065 16.511 4.28796 16.7206 4.20135C16.9302 4.11475 17.1502 4.07144 17.3806 4.07144C17.6109 4.07144 17.8347 4.11475 18.0518 4.20135C18.2689 4.28796 18.4565 4.41787 18.6147 4.59108L19.8056 5.80358C19.9788 5.96236 20.1052 6.15001 20.1849 6.36653C20.2646 6.58305 20.3041 6.79957 20.3036 7.01608C20.3036 7.24704 20.264 7.46731 20.1849 7.6769C20.1058 7.88649 19.9794 8.0776 19.8056 8.25024L8.39508 19.6607H4.71428ZM17.3589 8.22858L18.5714 7.01608L17.3589 5.80358L16.1464 7.01608L17.3589 8.22858Z" fill="#00C925"/>
</svg>
